PathFileType	4	(X/Y/Z)	C:/Users/beibeiliu/ov580/test_trc/User2\sequence.16_training_dense_right.trc
DataRate	CameraRate	NumFrames	NumMarkers	Units	OrigDataRate	OrigDataStartFrame	OrigNumFrames
120	120	22	19	mm	120	26	50
Frame#	Time	ThumbCMC			ThumbMCP			ThumbIP			ThumbTip			IndexMCP			IndexPIP			IndexTip			MiddleMCP			MiddlePIP			MiddleTip			RingMCP			RingPIP			RingTip			PinkyMCP			PinkyPIP			PinkyTip			BackHand1			BackHand2			BackHand3	
		X0	Y0	Z0	X1	Y1	Z1	X2	Y2	Z2	X3	Y3	Z3	X4	Y4	Z4	X5	Y5	Z5	X6	Y6	Z6	X7	Y7	Z7	X8	Y8	Z8	X9	Y9	Z9	X10	Y10	Z10	X11	Y11	Z11	X12	Y12	Z12	X13	Y13	Z13	X14	Y14	Z14	X15	Y15	Z15	X16	Y16	Z16	X17	Y17	Z17	X18	Y18	Z18	
25	0.208333	129.708	52.5231	-52.5375	100.511	70.8912	-64.6289	71.8487	77.5732	-77.807	44.363	68.0009	-86.0699	111.098	16.2735	-118.403	102.156	14.6713	-145.437	91.9342	11.0427	-171.708	70.9772	7.25256	-110.049	43.5323	29.0619	-109.486	47.0904	58.6667	-76.2068	53.7001	6.16938	-87.7101	38.3852	34.9189	-77.8552	56.254	50.1809	-55.7726	47.4143	1.1869	-65.1359	41.5923	31.6025	-53.5007	69.3049	38.3723	-34.8892	105.763	-18.7777	-50.6812	125.999	-17.6402	-24.5225	137.873	5.84395	-53.9952	
26	0.216667	122.207	54.0589	-46.3046	91.096	63.3408	-61.1387	60.7268	64.0097	-79.8473	38.3499	47.716	-92.0769	122.989	23.6445	-116.992	116.814	19.3277	-143.731	110.374	20.9513	-173.601	93.0621	0.134607	-113.097	54.1924	10.9005	-116.05	41.0629	30.5466	-86.964	70.6003	-6.25384	-96.7253	47.427	13.6675	-85.9616	56.8223	30.4167	-55.1361	63.2551	-17.2167	-71.7693	51.0417	11.8931	-61.7563	71.2485	23.1957	-41.5161	123.89	-14.8495	-55.9403	139.114	-12.2929	-24.6433	148.189	16.6773	-50.7731	
27	0.225	111.235	61.0092	-36.7081	77.8865	57.8669	-56.6906	53.2058	41.9792	-83.9003	40.8618	22.9039	-95.928	129.154	38.5517	-114.583	126.018	40.9985	-140.504	120.065	41.8807	-170.867	114.104	7.10664	-117.113	78.8718	-0.0955388	-130.443	47.7399	11.2288	-106.221	96.6957	-13.2014	-99.3782	64.0802	-4.0007	-95.0969	62.6909	9.38362	-60.2118	90.1071	-25.9124	-79.7579	62.0795	-12.4549	-66.0878	78.5335	11.0544	-44.1856	141.393	-4.24403	-57.1674	154.429	4.96455	-21.2475	148.35	33.9998	-48.4659	
28	0.233333	94.5409	53.0878	-31.6356	69.4618	39.0077	-58.3759	58.6845	19.9304	-83.4159	59.8091	-1.39317	-103.253	119.819	62.8976	-108.46	115.631	66.7592	-132.391	109.229	68.5466	-164.561	131.138	32.6349	-117.086	110.824	20.5487	-143.589	75.0706	1.11279	-139.01	116.204	-1.88509	-107.387	87.2889	-13.5019	-104.841	77.9821	-5.9901	-71.1723	116.103	-20.3165	-86.7804	84.9679	-20.9476	-74.5092	87.9081	-6.10096	-46.6074	151.504	18.6416	-53.4714	157.588	21.1712	-17.8573	137.651	53.2979	-40.8846	
29	0.241667	82.7894	31.7118	-26.4633	68.5391	10.0267	-56.5496	70.3479	-7.57418	-91.5425	91.5623	-17.9095	-109.791	97.0009	65.6018	-102.716	88.936	72.0277	-123.005	82.5543	78.243	-149.207	129.582	59.7307	-107.784	125.317	55.3562	-143.333	106.981	33.0949	-168.783	133.06	14.442	-107.82	111.954	-11.0941	-113.623	98.3845	-15.8896	-80.0598	140.105	-6.09122	-90.5147	113.064	-26.9194	-81.6876	106.219	-18.199	-52.9216	148.545	37.4493	-51.2141	153.038	37.0731	-14.3854	116.604	56.166	-29.4808	
30	0.25	75.8019	27.0178	-26.7166	68.7284	3.28858	-57.3856	77.6585	-12.8735	-87.1041	98.0438	-19.0068	-104.67	81.236	68.3947	-92.5832	76.0876	75.0019	-118.748	68.0968	83.3482	-140.809	119.342	70.1475	-99.6793	120.759	77.6115	-134.048	119.797	73.3543	-167.492	132.66	28.7473	-106.766	118.564	1.5591	-116.555	108.422	-15.9147	-83.2957	142.593	9.19356	-89.3365	121.663	-15.8118	-86.0736	110.979	-15.379	-58.1422	141.564	48.2215	-44.6617	141.791	47.0792	-11.5148	106.425	59.2763	-24.669	
31	0.258333	69.5983	27.4887	-20.8935	63.0678	3.21976	-54.7634	71.3239	-12.0352	-83.4901	93.2482	-18.2163	-103.817	76.8993	69.1779	-87.4312	64.6546	77.6122	-113.501	58.7229	85.7058	-138.256	110.982	72.7383	-97.5196	113.163	80.1486	-126.879	111.952	89.4105	-159.131	122.816	32.7771	-103.849	113.564	4.17022	-113.772	99.2678	-13.5084	-88.3758	138.552	13.247	-86.6866	118.828	-12.4344	-86.6314	104.824	-13.5887	-57.6455	131.576	51.8301	-41.747	132.939	52.3821	-5.2647	101.445	60.1318	-21.8577	
32	0.266667	57.9499	20.6779	-16.1276	51.8884	-4.23797	-52.1601	59.7348	-20.0889	-83.8039	83.681	-25.3615	-100.762	66.96	60.3571	-85.613	52.308	68.0877	-113.309	47.1683	73.3539	-135.32	99.6333	60.775	-94.6125	99.0465	69.8809	-126.819	105.891	78.65	-155.05	114.394	25.3274	-100.661	103.663	-2.43296	-113.265	92.9602	-24.3403	-84.4623	128.991	7.54378	-84.5043	113.472	-23.3859	-84.9544	97.331	-21.2183	-53.9115	125.731	45.3876	-39.5044	128.086	43.4126	-7.09215	92.3875	54.058	-23.9278	
33	0.275	51.336	8.30392	-17.5069	41.9158	-18.3919	-45.9611	50.8111	-36.7571	-77.256	74.9996	-41.8932	-98.9855	54.475	44.6884	-91.1936	46.9844	48.2595	-114.541	43.3144	52.8497	-140.64	94.77	42.1207	-96.9237	93.8614	49.5492	-128.699	97.0601	56.5113	-155.904	108.09	6.46912	-102.778	99.0397	-21.4986	-111.049	88.679	-40.1499	-83.7838	121.814	-10.6895	-84.2899	105.078	-39.0673	-81.1048	88.4975	-38.7533	-48.8191	115.883	34.5902	-40.6295	116.027	34.7769	-9.41351	79.124	41.5689	-21.822	
34	0.283333	44.9549	-1.92238	-19.0528	35.7974	-31.4368	-46.0583	46.6084	-50.1296	-69.7755	69.0409	-59.5432	-92.4373	52.8185	25.9721	-93.6796	38.3404	29.7237	-120.246	35.4371	31.6944	-142.693	83.4659	27.3806	-102.618	87.9798	28.1485	-130.166	94.0107	31.539	-162.459	99.8796	-9.11521	-98.8725	93.7906	-37.9275	-105.719	76.5322	-54.5014	-74.0678	114.5	-26.6593	-78.8767	97.3134	-54.0931	-72.2557	78.4133	-49.9564	-46.6232	109.135	19.9691	-39.3481	107.497	24.9019	-6.37478	72.1913	31.0129	-26.5555	
35	0.291667	36.3617	-4.73472	-11.6596	27.7695	-38.44	-39.2765	34.9199	-62.9339	-62.194	59.7874	-70.5371	-76.6114	38.7924	16.171	-93.6981	34.0702	12.7791	-116.655	24.1501	14.3977	-140.984	77.4765	13.5953	-102.687	80.7629	10.6297	-131.272	87.8587	7.95557	-160.232	93.2445	-23.4544	-92.2473	78.3429	-54.1723	-95.8044	66.8315	-65.3121	-61.5949	102.567	-40.2628	-73.4919	85.5071	-62.1299	-64.4255	67.0962	-56.499	-36.765	97.7552	15.6263	-39.6239	100.346	21.9614	-3.906	67.3232	26.9517	-25.2052	
36	0.3	28.5362	0.295177	-8.71875	15.8977	-33.8629	-22.8616	20.121	-64.3229	-49.4108	40.8577	-77.3023	-61.5764	32.6244	9.29164	-89.4519	18.9643	6.51495	-110.978	13.6611	1.9291	-135.628	62.7851	1.41071	-99.1288	65.8954	-8.17578	-125.99	66.699	-14.0657	-158.446	75.5889	-34.1362	-85.1214	59.2541	-64.2385	-81.9395	46.5304	-65.9414	-48.6375	89.2525	-48.7917	-61.762	63.0176	-70.6429	-46.2781	49.2965	-57.8695	-26.2158	90.0925	7.16075	-37.8974	94.4087	19.837	-9.56305	62.0518	27.3808	-21.4724	
37	0.308333	29.3622	17.7929	2.24148	3.71356	-14.4858	-8.72365	-2.29311	-48.6215	-30.5134	16.0185	-67.3951	-43.0713	24.6444	15.1906	-80.9784	11.867	11.3039	-103.465	-3.29643	10.8135	-126.658	52.348	-3.41476	-93.4026	48.6204	-17.771	-119.555	44.4631	-29.4969	-148.402	55.9209	-36.5724	-76.5476	31.7508	-60.4644	-66.4668	22.1887	-54.4158	-34.8109	66.1651	-53.3998	-51.9893	39.1431	-62.4286	-31.7874	33.1355	-39.4454	-10.6562	87.7788	5.4348	-36.3439	99.3395	17.1055	-10.9761	63.5939	31.8107	-25.6396	
38	0.316667	38.5672	45.8774	6.15031	2.97336	23.4002	0.557187	-16.6619	-7.10187	-15.6342	-10.8189	-32.044	-25.2209	22.1142	36.5366	-78.7863	5.89192	37.6684	-98.0593	-8.844	35.2223	-120.408	42.1687	6.3789	-86.2397	26.5573	-2.37711	-110.5	13.7503	-13.6583	-138.296	29.6468	-21.7793	-67.3434	6.43636	-35.6427	-54.4743	2.24721	-21.9781	-19.8098	42.208	-37.0588	-43.2663	17.7593	-39.1882	-21.3886	21.3594	-14.5258	-1.25131	82.2125	7.8406	-34.3372	99.6571	19.3043	-11.9027	74.3552	42.8637	-25.6951	
39	0.325	57.6334	75.8667	5.44157	15.5317	66.7361	1.69731	-11.9416	46.3044	-6.70746	-21.9092	23.5058	-12.1821	33.9737	66.4519	-71.4864	16.7584	72.882	-92.5922	-0.856358	76.2914	-114.614	31.7492	33.6648	-84.2096	9.91557	25.6566	-105.499	-10.4202	18.2659	-126.91	11.8164	8.29513	-58.3228	-13.326	12.1562	-40.9403	-5.26503	25.439	-7.28257	19.2079	-3.60003	-37.2397	-1.34323	4.73802	-10.8215	18.009	22.6968	9.19885	76.4613	13.3375	-35.1559	101.473	16.9514	-11.2463	85.6184	53.1849	-28.8365	
40	0.333333	77.285	85.322	-2.37486	38.5257	94.0212	1.14893	2.63088	87.5553	-3.91423	-15.5889	67.7142	-10.5209	47.9494	80.4166	-75.6672	30.8774	88.205	-96.0536	13.3458	97.8779	-119.507	30.8601	46.3623	-80.296	7.80983	51.0595	-98.0849	-18.3418	50.9678	-119.194	9.63688	33.2479	-52.0676	-14.7655	49.0061	-35.7512	-4.39907	59.5305	-3.50733	8.34019	19.3962	-30.5991	-5.07324	38.985	-5.24431	18.5939	49.2222	13.5158	69.8772	20.8158	-35.1637	96.9045	14.3778	-14.6337	91.6117	49.4428	-30.0451	
41	0.341667	94.208	82.7209	-8.81471	61.8886	107.071	-4.82902	24.0389	107.004	-11.0184	-2.61892	96.2147	-14.3932	62.0411	83.9013	-81.7995	47.6692	95.226	-103.299	35.5953	107.329	-123.182	32.5899	58.8416	-84.2273	8.12766	64.4218	-99.1959	-17.9546	71.3714	-117.419	8.64987	53.8086	-52.654	-6.60342	74.7497	-38.7019	10.3761	84.5861	-3.84122	8.86863	38.8022	-29.4908	4.19219	67.6831	-7.35224	26.9478	68.7145	10.6999	67.4568	20.4459	-34.9153	88.2877	12.7218	-15.4328	98.3792	46.6853	-34.5611	
42	0.35	105.588	78.1007	-15.7293	80.0912	107.86	-12.3817	42.3713	119.157	-18.1634	13.9163	112.398	-21.3105	69.6496	81.4168	-89.6667	61.3586	93.4277	-108.225	51.1228	107.037	-130.219	37.2209	62.1215	-86.4911	17.6994	72.1718	-100.901	-5.69103	84.8271	-120.245	19.8477	66.5345	-56.9885	5.39861	91.2991	-41.6604	23.9573	101.862	-14.8355	12.5215	53.3951	-31.1115	11.1897	81.3141	-11.4817	41.3048	80.9425	5.57402	66.9421	22.7745	-36.3078	85.4186	10.3219	-16.8333	99.9279	42.1513	-40.2163	
43	0.358333	118.549	75.2328	-21.4344	93.513	104.653	-20.9296	60.3492	119.634	-25.8345	33.448	115.798	-27.9617	82.6457	74.4216	-92.144	77.8939	90.995	-119.822	69.7174	101.674	-139.045	51.5934	61.5139	-89.0214	31.8211	76.4842	-110.819	11.0896	87.9222	-127.942	29.9993	66.823	-64.6597	19.7973	97.5433	-50.2872	36.3971	103.279	-21.5741	19.8981	60.4326	-37.9197	25.9775	88.8796	-21.4259	52.9215	84.7812	-4.17754	72.2511	22.4846	-39.6745	89.6362	7.87926	-20.2505	106.293	33.4466	-40.2253	
44	0.366667	125.424	64.6611	-30.8724	106.504	96.1717	-33.3163	74.0941	111.929	-41.135	45.4759	109.353	-45.3425	99.7352	62.9859	-107.388	96.2035	74.5559	-128.028	85.1238	82.7396	-153.641	66.1001	50.7765	-103.204	45.1294	61.7987	-123.867	27.3511	73.8162	-144.892	41.3304	60.5951	-77.7754	34.1979	90.101	-66.3602	51.0475	96.4376	-37.6561	36.6749	54.3581	-52.3177	38.4019	83.3909	-35.0281	65.7661	80.8448	-21.8722	80.3965	13.8812	-50.3931	99.5779	0.597942	-21.0025	119.792	24.6784	-46.7373	
45	0.375	138.565	52.6163	-41.5093	116.451	84.179	-52.8884	85.2193	99.0629	-66.0544	56.0094	94.9057	-72.1088	116.961	37.5475	-114.939	116.897	48.7427	-142.099	110.118	54.3013	-170.837	87.0171	26.2907	-116.356	70.8839	34.5266	-139.518	49.238	42.0184	-164.15	62.3191	37.768	-93.121	49.9193	70.1063	-87.6602	65.3364	83.3658	-59.2027	47.343	37.0818	-69.3267	49.8863	66.1277	-60.7999	72.6803	71.9028	-35.7197	98.1915	0.406984	-55.9957	111.268	-13.2019	-25.2374	135.31	11.9666	-56.4394	
46	0.383333	150.921	49.2514	-50.2699	125.659	73.108	-66.2411	91.679	82.9377	-85.8413	69.2156	76.7365	-89.9848	139.618	22.4229	-122.69	135.813	24.6011	-150.545	131.057	26.7627	-181.413	107.09	3.98402	-122.822	92.289	6.97902	-151.587	73.9448	8.85113	-176.616	80.2639	16.9193	-105.616	64.4993	48.1404	-105.716	75.8368	66.9841	-77.7311	61.4815	16.6869	-83.5696	59.4574	50.8656	-75.2244	81.2808	59.8955	-57.8239	109.888	-12.626	-61.6104	125.416	-18.792	-31.2804	148.179	2.05161	-57.2343	
